<?xml version="1.0" encoding="utf-8"?>
<!-- Generator: Adobe Illustrator 21.0.2, SVG Export Plug-In . SVG Version: 6.00 Build 0)  -->
<svg version="1.1" id="編集モード" xmlns="http://www.w3.org/2000/svg" xmlns:xlink="http://www.w3.org/1999/xlink" x="0px"
	 y="0px" viewBox="0 0 194 100.8" style="enable-background:new 0 0 194 100.8;" xml:space="preserve">
<path d="M59.5,62c-0.2,0-0.4,0-0.5,0.1c-0.1,0.1-0.2,0.2-0.3,0.4l-1.1,2.9c-0.1,0.2-0.1,0.4-0.1,0.6c0,0.2,0.1,0.4,0.2,0.5
	c0.1,0.1,0.3,0.3,0.4,0.3c0.2,0.1,0.4,0.1,0.6,0.2c0.2,0,0.5,0.1,0.7,0.1c0.1,0,0.2,0,0.2,0.1c0,0.1,0.1,0.2,0.1,0.3
	c0,0.1,0,0.2-0.1,0.3c0,0.1-0.1,0.1-0.2,0.1c-0.4,0-0.9,0-1.4-0.1c-0.5-0.1-1-0.1-1.5-0.1c-0.4,0-0.8,0-1.2,0.1
	C55,68,54.5,68,54.1,68c-0.1,0-0.2,0-0.2-0.1c-0.1-0.1-0.1-0.2-0.1-0.3c0-0.1,0-0.2,0-0.3c0-0.1,0.1-0.1,0.2-0.2l0.4-0.1
	c0.2,0,0.5-0.1,0.7-0.2c0.2-0.1,0.4-0.2,0.6-0.4c0.2-0.2,0.3-0.4,0.5-0.7c0.2-0.3,0.3-0.6,0.5-1.1l5.6-14.1c0-0.1,0.2-0.2,0.4-0.2
	c0.2,0,0.4,0.1,0.5,0.2c0.4,1.1,0.9,2.2,1.3,3.4c0.5,1.2,1,2.4,1.4,3.7c0.5,1.2,1,2.5,1.5,3.7c0.5,1.2,1,2.4,1.4,3.5
	c0.2,0.5,0.4,0.9,0.6,1.1c0.2,0.3,0.4,0.5,0.6,0.6c0.2,0.1,0.4,0.2,0.6,0.3s0.4,0.1,0.6,0.1c0.1,0,0.2,0.1,0.2,0.2
	c0,0.1,0.1,0.2,0.1,0.3s0,0.2-0.1,0.3c0,0.1-0.1,0.1-0.2,0.1c-0.5,0-1,0-1.5-0.1c-0.5-0.1-1-0.1-1.6-0.1c-0.7,0-1.3,0-2,0.1
	C65.5,68,64.9,68,64.4,68c-0.1,0-0.2,0-0.3-0.1c-0.1-0.1-0.1-0.2-0.1-0.3c0-0.1,0-0.2,0.1-0.3c0-0.1,0.1-0.1,0.2-0.1
	c0.6-0.1,1-0.2,1.2-0.3c0.3-0.1,0.4-0.4,0.4-0.8c0-0.1,0-0.2,0-0.4c0-0.1-0.1-0.4-0.2-0.6c-0.1-0.3-0.2-0.6-0.3-1
	c-0.1-0.4-0.3-0.9-0.6-1.5c-0.1-0.2-0.2-0.4-0.3-0.4c-0.1-0.1-0.4-0.1-0.7-0.1H59.5z M63.7,61.1c0.2,0,0.4,0,0.5-0.1
	c0.1-0.1,0.1-0.2,0-0.4l-2.2-5.8c0-0.1-0.1-0.1-0.2-0.1s-0.2,0-0.2,0.1l-2.3,5.8c-0.1,0.2-0.1,0.4,0,0.4c0.1,0.1,0.2,0.1,0.4,0.1
	H63.7z"/>
<path d="M77.2,64.9c0,0.4,0,0.8,0,1c0,0.3,0.1,0.5,0.3,0.7c0.1,0.2,0.4,0.3,0.7,0.4c0.3,0.1,0.8,0.2,1.4,0.2c0.1,0,0.2,0.1,0.2,0.1
	c0.1,0.1,0.1,0.2,0.1,0.3c0,0.1,0,0.2-0.1,0.2c0,0.1-0.1,0.1-0.2,0.1c-0.7,0-1.3,0-1.9-0.1c-0.5-0.1-1.1-0.1-1.6-0.1
	c-0.5,0-1.1,0-1.6,0.1C74,68,73.5,68,73,68c-0.1,0-0.1,0-0.2-0.1c-0.1-0.1-0.1-0.2-0.1-0.2c0-0.1,0-0.2,0.1-0.3
	c0-0.1,0.1-0.1,0.2-0.1c0.5,0,0.8-0.1,1.1-0.2c0.3-0.1,0.4-0.2,0.6-0.4c0.1-0.2,0.2-0.4,0.2-0.6c0-0.3,0-0.6,0-1v-3.6
	c0-0.8,0-1.4,0-1.9c0-0.5-0.1-0.8-0.2-1.1c-0.1-0.3-0.3-0.4-0.6-0.5c-0.3-0.1-0.6-0.1-1.1-0.2c-0.1,0-0.1,0-0.2-0.1
	c0-0.1-0.1-0.2-0.1-0.2c0-0.1,0-0.2,0.1-0.2c0-0.1,0.1-0.1,0.2-0.1c0.3,0,0.8-0.1,1.4-0.1c0.6,0,1.2-0.1,1.8-0.3
	c0.2-0.1,0.4-0.1,0.6,0c0.1,0,0.2,0.2,0.2,0.4l0,1.6c0,0,0,0.1,0,0.1s0,0,0.1,0c0.3-0.7,0.8-1.2,1.3-1.7c0.5-0.4,1.2-0.6,2-0.6
	c0.7,0,1.2,0.2,1.5,0.5c0.3,0.4,0.5,0.8,0.5,1.3c0,0.3-0.1,0.5-0.3,0.8c-0.2,0.2-0.5,0.3-0.9,0.3c-0.4,0-0.6-0.1-0.8-0.3
	c-0.1-0.2-0.2-0.4-0.2-0.6c0-0.2,0-0.4-0.1-0.5c-0.1-0.1-0.3-0.2-0.6-0.2c-0.3,0-0.6,0.1-0.9,0.3c-0.3,0.2-0.5,0.4-0.7,0.7
	c-0.2,0.3-0.3,0.6-0.4,0.9c-0.1,0.3-0.1,0.5-0.1,0.7V64.9z"/>
<path d="M87.1,64.1c0,0.9,0.1,1.6,0.3,2.1c0.2,0.4,0.6,0.7,1.1,0.7c0.4,0,0.7-0.1,1.1-0.2c0.3-0.1,0.6-0.2,0.8-0.4c0,0,0.1,0,0.2,0
	c0.1,0,0.1,0.1,0.2,0.1c0,0.1,0.1,0.1,0.1,0.2c0,0.1,0,0.1,0,0.2c-0.3,0.5-0.7,0.9-1.2,1.1c-0.5,0.2-1.1,0.3-1.8,0.3
	c-1.1,0-1.9-0.3-2.4-0.8c-0.5-0.5-0.7-1.3-0.7-2.4v-6.4c0-0.2,0-0.4,0-0.5c0-0.1-0.1-0.2-0.1-0.2c-0.1,0-0.2-0.1-0.4-0.1
	c-0.2,0-0.5,0-0.8,0c0,0-0.1,0-0.1-0.1c0-0.1-0.1-0.2-0.1-0.3c0-0.1,0-0.2,0-0.3c0-0.1,0.1-0.1,0.1-0.1c0.4,0,0.8-0.1,1.1-0.2
	c0.3-0.1,0.5-0.2,0.8-0.4c0.2-0.2,0.4-0.5,0.5-0.8c0.1-0.3,0.2-0.8,0.3-1.3c0-0.1,0.1-0.2,0.2-0.2c0.1-0.1,0.2-0.1,0.4-0.1
	c0.1,0,0.3,0,0.4,0.1c0.1,0,0.2,0.1,0.2,0.2v2.1c0,0.3,0,0.4,0,0.5s0.1,0.1,0.3,0.1H90c0.1,0,0.2,0.1,0.2,0.2c0,0.1,0,0.2,0,0.3
	c0,0.1,0,0.2-0.1,0.4c0,0.1-0.1,0.2-0.3,0.2h-2.6c-0.1,0-0.2,0-0.2,0.1c0,0.1,0,0.3,0,0.6V64.1z"/>
<path d="M110.5,51.2c0.1,0,0.3,0,0.4,0c0.1,0,0.2,0.2,0.1,0.4c0,0.5-0.1,1,0,1.7c0,0.6,0,1.2,0.1,1.7c0,0.1,0,0.1-0.1,0.2
	c-0.1,0-0.2,0.1-0.3,0.1c-0.1,0-0.2,0-0.3-0.1c-0.1,0-0.1-0.1-0.2-0.2c-0.1-0.6-0.2-1.1-0.3-1.5c-0.1-0.4-0.3-0.6-0.5-0.8
	c-0.2-0.2-0.5-0.3-0.8-0.4c-0.4,0-0.8-0.1-1.4-0.1h-1.5c-0.4,0-0.8,0-1,0c-0.3,0-0.5,0.1-0.6,0.2c-0.1,0.1-0.2,0.3-0.3,0.5
	c-0.1,0.2-0.1,0.6-0.1,1v4.3c0,0.2,0,0.4,0.1,0.4c0.1,0.1,0.2,0.1,0.2,0.1c0.8,0,1.4,0,1.8-0.1c0.4-0.1,0.8-0.2,1-0.4
	c0.2-0.2,0.4-0.4,0.4-0.7c0.1-0.3,0.1-0.6,0.2-1.1c0-0.1,0.1-0.2,0.1-0.2c0.1,0,0.2-0.1,0.3-0.1c0.1,0,0.2,0,0.3,0.1
	c0.1,0.1,0.1,0.1,0.1,0.2c0,0.3,0,0.5,0,0.7c0,0.2,0,0.4,0,0.6c0,0.2,0,0.4-0.1,0.6c0,0.2,0,0.5,0,0.8c0,0.5,0,0.9,0.1,1.3
	c0,0.4,0.1,0.9,0.1,1.5c0,0.1,0,0.1-0.1,0.2c-0.1,0-0.2,0.1-0.3,0.1c-0.1,0-0.2,0-0.3-0.1c-0.1,0-0.1-0.1-0.1-0.2
	c0-0.5-0.1-0.9-0.2-1.2c-0.1-0.3-0.2-0.5-0.4-0.7c-0.2-0.2-0.6-0.3-1-0.3c-0.4-0.1-1-0.1-1.8-0.1c-0.1,0-0.2,0-0.2,0.1
	c-0.1,0.1-0.1,0.2-0.1,0.4v4.2c0,0.6,0,1,0.1,1.3c0.1,0.3,0.2,0.6,0.5,0.8c0.2,0.2,0.5,0.3,0.9,0.4c0.4,0.1,0.8,0.1,1.4,0.2
	c0.1,0,0.2,0,0.2,0.1c0,0.1,0.1,0.2,0.1,0.3c0,0.1,0,0.2-0.1,0.3c-0.1,0.1-0.1,0.1-0.3,0.1c-0.9,0-1.7,0-2.3-0.1
	c-0.6-0.1-1.2-0.1-1.8-0.1c-0.6,0-1.2,0-1.9,0.1C99.9,68,99.3,68,98.7,68c-0.1,0-0.2,0-0.2-0.1c-0.1-0.1-0.1-0.2-0.1-0.3
	c0-0.1,0-0.2,0.1-0.3c0-0.1,0.1-0.1,0.2-0.2c0.5,0,0.8-0.1,1.1-0.2c0.3-0.1,0.5-0.2,0.7-0.4c0.2-0.2,0.3-0.4,0.3-0.7
	c0.1-0.3,0.1-0.7,0.1-1.2v-9.3c0-0.4,0-0.7,0-1.1c0-0.3-0.1-0.7-0.2-1c-0.1-0.3-0.2-0.6-0.4-0.8c-0.2-0.2-0.4-0.4-0.7-0.4
	c-0.2-0.1-0.4-0.1-0.6-0.1c-0.2,0-0.4-0.1-0.6-0.1c-0.1,0-0.2,0-0.2-0.1c0-0.1-0.1-0.2-0.1-0.3s0-0.2,0.1-0.3c0-0.1,0.1-0.1,0.2-0.1
	c0.6,0,1.1,0,1.5,0c0.4,0,1,0,1.6,0H110.5z"/>
<path d="M120,65.2c0,0.6,0.1,1,0.2,1.2c0.1,0.2,0.3,0.3,0.6,0.3c0.2,0,0.3,0,0.4-0.1c0.1,0,0.3-0.1,0.5-0.3c0.1,0,0.1,0,0.2,0
	c0.1,0,0.1,0.1,0.1,0.1c0,0.1,0.1,0.1,0.1,0.2c0,0.1,0,0.1,0,0.2c-0.6,0.8-1.4,1.2-2.3,1.2c-0.5,0-0.9-0.1-1.2-0.4
	c-0.3-0.3-0.6-0.6-0.8-0.9c0-0.1-0.1-0.1-0.1,0c-0.4,0.4-0.9,0.7-1.5,0.9c-0.6,0.2-1.3,0.4-2.1,0.4c-0.9,0-1.7-0.3-2.2-0.8
	c-0.5-0.5-0.8-1.2-0.8-2.1c0-1.2,0.6-2.1,1.7-2.7c1.1-0.6,2.7-1,4.8-1c0,0,0.1,0,0.1-0.1c0-0.1,0-0.3,0-0.6v-0.7
	c0-0.4,0-0.8-0.1-1.2c-0.1-0.4-0.2-0.7-0.3-1c-0.2-0.3-0.4-0.5-0.7-0.6c-0.3-0.2-0.6-0.2-1-0.2c-0.6,0-1.1,0.1-1.5,0.4
	c-0.4,0.2-0.6,0.5-0.6,0.9c0,0.2,0.1,0.4,0.2,0.5c0.1,0.2,0.2,0.4,0.2,0.5c0,0.2-0.1,0.5-0.3,0.7c-0.2,0.2-0.5,0.3-0.8,0.3
	c-0.4,0-0.8-0.1-1-0.4c-0.2-0.2-0.3-0.5-0.3-0.9c0-0.4,0.1-0.8,0.3-1.2c0.2-0.4,0.5-0.7,0.9-1c0.4-0.3,0.9-0.5,1.4-0.6
	c0.5-0.2,1.1-0.2,1.7-0.2c1.3,0,2.4,0.3,3.1,0.9c0.8,0.6,1.1,1.6,1.1,3V65.2z M117.7,62.8c0-0.2,0-0.3,0-0.3c0,0-0.1-0.1-0.1-0.1
	c-1.4,0.1-2.4,0.4-3,0.9c-0.7,0.5-1,1-1,1.7c0,0.5,0.1,0.9,0.4,1.2c0.2,0.3,0.7,0.5,1.2,0.5c0.4,0,0.8-0.1,1.2-0.2
	c0.4-0.1,0.8-0.4,1.1-0.6c0.1-0.1,0.2-0.3,0.2-0.4V62.8z"/>
<path d="M127.6,64.9c0,0.4,0,0.8,0,1c0,0.3,0.1,0.5,0.2,0.7c0.1,0.2,0.3,0.3,0.5,0.4c0.2,0.1,0.5,0.2,0.9,0.2c0.1,0,0.2,0.1,0.2,0.1
	c0.1,0.1,0.1,0.2,0.1,0.3c0,0.1,0,0.2-0.1,0.2c0,0.1-0.1,0.1-0.2,0.1c-0.3,0-0.7,0-1.2-0.1c-0.5-0.1-1-0.1-1.5-0.1
	c-0.5,0-1,0-1.5,0.1c-0.5,0.1-1,0.1-1.4,0.1c-0.1,0-0.1,0-0.2-0.1c0-0.1-0.1-0.2-0.1-0.2c0-0.1,0-0.2,0.1-0.3c0-0.1,0.1-0.1,0.2-0.1
	c0.4,0,0.8-0.1,1-0.2c0.2-0.1,0.4-0.2,0.5-0.4c0.1-0.2,0.2-0.4,0.2-0.6c0-0.3,0-0.6,0-1v-4c0-0.7,0-1.3,0-1.7c0-0.4-0.1-0.8-0.2-1
	c-0.1-0.2-0.3-0.4-0.5-0.5c-0.2-0.1-0.5-0.1-0.9-0.2c-0.1,0-0.2,0-0.2-0.1c0-0.1-0.1-0.2-0.1-0.2c0-0.1,0-0.2,0.1-0.2
	c0-0.1,0.1-0.1,0.2-0.1c0.2,0,0.4,0,0.6-0.1c0.2,0,0.5,0,0.8-0.1c0.3,0,0.5-0.1,0.8-0.1c0.3,0,0.5-0.1,0.7-0.1
	c0.2,0,0.3-0.1,0.4-0.1c0.1,0,0.2-0.1,0.3-0.1c0.2,0,0.3,0.1,0.4,0.2c0.1,0.1,0.1,0.2,0.1,0.3V64.9z M126.3,53.9
	c-0.4,0-0.8-0.1-1.1-0.4c-0.3-0.3-0.4-0.6-0.4-1s0.1-0.7,0.4-1c0.3-0.3,0.6-0.4,1-0.4c0.4,0,0.7,0.1,1,0.4c0.3,0.3,0.4,0.6,0.4,1
	c0,0.4-0.1,0.7-0.4,0.9C127,53.8,126.7,53.9,126.3,53.9"/>
<path d="M135.2,64.9c0,0.4,0,0.8,0,1c0,0.3,0.1,0.5,0.3,0.7c0.1,0.2,0.4,0.3,0.7,0.4c0.3,0.1,0.8,0.2,1.4,0.2c0.1,0,0.2,0.1,0.2,0.1
	c0.1,0.1,0.1,0.2,0.1,0.3c0,0.1,0,0.2-0.1,0.2c0,0.1-0.1,0.1-0.2,0.1c-0.7,0-1.3,0-1.9-0.1c-0.5-0.1-1.1-0.1-1.6-0.1
	c-0.5,0-1.1,0-1.6,0.1c-0.5,0.1-1,0.1-1.6,0.1c-0.1,0-0.1,0-0.2-0.1c-0.1-0.1-0.1-0.2-0.1-0.2c0-0.1,0-0.2,0.1-0.3
	c0-0.1,0.1-0.1,0.2-0.1c0.5,0,0.8-0.1,1.1-0.2c0.3-0.1,0.4-0.2,0.6-0.4c0.1-0.2,0.2-0.4,0.2-0.6c0-0.3,0-0.6,0-1v-3.6
	c0-0.8,0-1.4,0-1.9c0-0.5-0.1-0.8-0.2-1.1c-0.1-0.3-0.3-0.4-0.6-0.5c-0.3-0.1-0.6-0.1-1.1-0.2c-0.1,0-0.1,0-0.2-0.1
	c0-0.1-0.1-0.2-0.1-0.2c0-0.1,0-0.2,0.1-0.2c0-0.1,0.1-0.1,0.2-0.1c0.3,0,0.8-0.1,1.4-0.1c0.6,0,1.2-0.1,1.8-0.3
	c0.2-0.1,0.4-0.1,0.6,0c0.1,0,0.2,0.2,0.2,0.4l0,1.6c0,0,0,0.1,0,0.1s0,0,0.1,0c0.3-0.7,0.8-1.2,1.3-1.7c0.5-0.4,1.2-0.6,2-0.6
	c0.7,0,1.2,0.2,1.5,0.5c0.3,0.4,0.5,0.8,0.5,1.3c0,0.3-0.1,0.5-0.3,0.8c-0.2,0.2-0.5,0.3-0.9,0.3c-0.4,0-0.6-0.1-0.8-0.3
	c-0.1-0.2-0.2-0.4-0.2-0.6c0-0.2,0-0.4-0.1-0.5c-0.1-0.1-0.3-0.2-0.6-0.2c-0.3,0-0.6,0.1-0.9,0.3c-0.3,0.2-0.5,0.4-0.7,0.7
	c-0.2,0.3-0.3,0.6-0.4,0.9c-0.1,0.3-0.1,0.5-0.1,0.7V64.9z"/>
<path d="M20.3,83.1c0-0.5,0-0.9-0.1-1.3c-0.1-0.4-0.2-0.7-0.3-0.9c-0.2-0.2-0.4-0.4-0.7-0.5s-0.7-0.2-1.2-0.2c-0.1,0-0.2,0-0.2-0.1
	c0-0.1-0.1-0.2-0.1-0.3c0-0.1,0-0.2,0.1-0.3c0-0.1,0.1-0.1,0.2-0.1c0.5,0,1.1,0,1.8,0.1c0.7,0.1,1.3,0.1,1.9,0.1c0.3,0,0.7,0,0.9,0
	c0.3,0,0.6,0,0.8-0.1c0.3,0,0.5,0,0.8-0.1c0.3,0,0.6,0,0.9,0c0.1,0,0.2,0,0.2,0.1c0,0.1,0.1,0.2,0.1,0.3c0,0.1,0,0.2-0.1,0.3
	c-0.1,0.1-0.1,0.1-0.2,0.1c-0.5,0-0.9,0.1-1.2,0.2c-0.3,0.1-0.5,0.3-0.7,0.5c-0.1,0.2-0.2,0.5-0.3,0.9c0,0.4-0.1,0.8-0.1,1.4v4.4
	c0,0.2,0.1,0.3,0.2,0.3c0.1,0,0.3-0.1,0.5-0.3c1.1-1.1,2.1-2.2,2.9-3.2c0.8-1,1.4-1.9,1.8-2.6c0.2-0.3,0.3-0.6,0.3-0.8
	c0-0.2,0-0.4-0.1-0.5c-0.1-0.1-0.3-0.2-0.5-0.3c-0.2,0-0.5-0.1-0.8-0.1c-0.1,0-0.2-0.1-0.3-0.1c-0.1-0.1-0.1-0.2-0.1-0.3
	c0-0.1,0-0.2,0.1-0.3c0-0.1,0.1-0.1,0.2-0.1c0.6,0,1.1,0,1.5,0.1c0.5,0.1,0.9,0.1,1.4,0.1c0.4,0,0.8,0,1.2-0.1
	c0.3-0.1,0.8-0.1,1.3-0.1c0.1,0,0.1,0,0.2,0.1c0,0.1,0.1,0.2,0.1,0.3c0,0.1,0,0.2-0.1,0.3c0,0.1-0.1,0.1-0.2,0.1
	c-0.3,0-0.6,0.1-0.8,0.1c-0.2,0.1-0.4,0.1-0.6,0.2c-0.2,0.1-0.3,0.2-0.5,0.4c-0.2,0.2-0.3,0.4-0.6,0.7c-0.3,0.4-0.6,0.8-0.9,1.2
	c-0.3,0.4-0.7,0.9-1,1.3c-0.3,0.4-0.7,0.8-1,1.2c-0.3,0.4-0.7,0.8-1,1.1c-0.1,0.1-0.2,0.3-0.1,0.4c0.1,0.1,0.2,0.2,0.3,0.4
	c0.4,0.4,0.8,0.8,1.2,1.3c0.4,0.5,0.9,1,1.3,1.6c0.4,0.6,0.8,1.1,1.2,1.7c0.4,0.6,0.8,1.2,1.2,1.8c0.3,0.6,0.7,1,1.1,1.3
	c0.4,0.3,1,0.5,1.7,0.6c0.1,0,0.2,0.1,0.2,0.1c0.1,0.1,0.1,0.2,0.1,0.3s0,0.2-0.1,0.3c0,0.1-0.1,0.1-0.2,0.1c-0.4,0-0.7,0-1,0
	c-0.3,0-0.6,0-0.9-0.1c-0.3,0-0.5,0-0.8-0.1c-0.3,0-0.6,0-0.9,0c-0.3,0-0.6,0-0.9,0c-0.3,0-0.5,0-0.8,0.1c-0.3,0-0.5,0-0.8,0.1
	c-0.3,0-0.6,0-0.9,0c-0.1,0-0.2,0-0.2-0.1c-0.1-0.1-0.1-0.2-0.1-0.3c0-0.1,0-0.2,0.1-0.3c0.1-0.1,0.1-0.1,0.3-0.1
	c0.2,0,0.4,0,0.6-0.1c0.2,0,0.3-0.1,0.5-0.2c0.1-0.1,0.2-0.3,0.2-0.5c0-0.2,0-0.4-0.2-0.7c-0.3-0.5-0.5-1-0.8-1.4
	c-0.2-0.4-0.5-0.8-0.7-1.2c-0.3-0.4-0.5-0.7-0.8-1c-0.3-0.3-0.7-0.7-1.1-1.1c-0.2-0.2-0.4-0.3-0.6-0.3c-0.2,0-0.4-0.1-0.5-0.1
	c-0.4,0-0.6,0.1-0.7,0.3c-0.1,0.2-0.2,0.4-0.2,0.7v3.1c0,0.5,0,1,0.1,1.3c0,0.3,0.1,0.6,0.3,0.7c0.1,0.2,0.3,0.3,0.6,0.4
	c0.3,0.1,0.6,0.1,1.1,0.2c0.1,0,0.2,0.1,0.2,0.1c0.1,0.1,0.1,0.2,0.1,0.3s0,0.2-0.1,0.3c-0.1,0.1-0.1,0.1-0.3,0.1
	c-0.3,0-0.6,0-0.9,0c-0.3,0-0.5,0-0.8-0.1c-0.3,0-0.5,0-0.8-0.1c-0.3,0-0.5,0-0.8,0c-0.6,0-1.3,0-1.9,0.1c-0.7,0.1-1.3,0.1-1.8,0.1
	c-0.1,0-0.2,0-0.2-0.1c0-0.1-0.1-0.2-0.1-0.3s0-0.2,0.1-0.3c0-0.1,0.1-0.1,0.2-0.1c0.5,0,0.9-0.1,1.2-0.2c0.3-0.1,0.5-0.2,0.7-0.4
	c0.2-0.2,0.3-0.4,0.3-0.7c0.1-0.3,0.1-0.7,0.1-1.3V83.1z"/>
<path d="M44.9,93.3c0,0.6,0.1,1,0.2,1.2c0.1,0.2,0.3,0.3,0.6,0.3c0.2,0,0.3,0,0.4-0.1c0.1,0,0.3-0.1,0.5-0.3c0.1,0,0.1,0,0.2,0
	c0.1,0,0.1,0.1,0.1,0.1c0,0.1,0.1,0.1,0.1,0.2c0,0.1,0,0.1,0,0.2c-0.6,0.8-1.4,1.2-2.3,1.2c-0.5,0-0.9-0.1-1.2-0.4
	c-0.3-0.3-0.6-0.6-0.8-0.9c0-0.1-0.1-0.1-0.1,0c-0.4,0.4-0.9,0.7-1.5,0.9c-0.6,0.2-1.3,0.4-2.1,0.4c-0.9,0-1.7-0.3-2.2-0.8
	c-0.5-0.5-0.8-1.2-0.8-2.1c0-1.2,0.6-2.1,1.7-2.7c1.1-0.6,2.7-1,4.8-1c0,0,0.1,0,0.1-0.1c0-0.1,0-0.3,0-0.6v-0.7
	c0-0.4,0-0.8-0.1-1.2c-0.1-0.4-0.2-0.7-0.3-1c-0.2-0.3-0.4-0.5-0.7-0.6c-0.3-0.2-0.6-0.2-1-0.2c-0.6,0-1.1,0.1-1.5,0.4
	c-0.4,0.2-0.6,0.5-0.6,0.9c0,0.2,0.1,0.4,0.2,0.5c0.1,0.2,0.2,0.4,0.2,0.5c0,0.2-0.1,0.5-0.3,0.7c-0.2,0.2-0.5,0.3-0.8,0.3
	c-0.4,0-0.8-0.1-1-0.4c-0.2-0.2-0.3-0.5-0.3-0.9c0-0.4,0.1-0.8,0.3-1.2c0.2-0.4,0.5-0.7,0.9-1c0.4-0.3,0.9-0.5,1.4-0.6
	c0.5-0.2,1.1-0.2,1.7-0.2c1.3,0,2.4,0.3,3.1,0.9c0.8,0.6,1.1,1.6,1.1,3V93.3z M42.5,90.9c0-0.2,0-0.3,0-0.3c0,0-0.1-0.1-0.1-0.1
	c-1.4,0.1-2.4,0.4-3,0.9c-0.7,0.5-1,1-1,1.7c0,0.5,0.1,0.9,0.4,1.2c0.2,0.3,0.7,0.5,1.2,0.5c0.4,0,0.8-0.1,1.2-0.2
	c0.4-0.1,0.8-0.4,1.1-0.6c0.1-0.1,0.2-0.3,0.2-0.4V90.9z"/>
<path d="M52.4,93c0,0.4,0,0.8,0,1c0,0.3,0.1,0.5,0.1,0.7c0.1,0.2,0.2,0.3,0.4,0.4c0.2,0.1,0.4,0.2,0.7,0.2c0.1,0,0.2,0.1,0.2,0.1
	c0,0.1,0.1,0.2,0.1,0.3c0,0.1,0,0.2-0.1,0.2c0,0.1-0.1,0.1-0.2,0.1c-0.2,0-0.5,0-0.9-0.1C52.3,96,51.8,96,51.3,96
	c-0.5,0-1,0-1.5,0.1c-0.5,0.1-1,0.1-1.4,0.1c-0.1,0-0.1,0-0.2-0.1c0-0.1-0.1-0.2-0.1-0.2c0-0.1,0-0.2,0.1-0.3c0-0.1,0.1-0.1,0.2-0.1
	c0.4,0,0.7-0.1,1-0.2c0.2-0.1,0.4-0.2,0.5-0.4c0.1-0.2,0.2-0.4,0.2-0.6c0-0.3,0-0.6,0-1v-3.1c0-0.8,0-1.5,0-2c0-0.5-0.1-1-0.2-1.3
	c-0.1-0.3-0.3-0.5-0.5-0.7c-0.2-0.1-0.5-0.2-0.9-0.2c-0.1,0-0.2,0-0.2-0.1c-0.1-0.1-0.1-0.1-0.1-0.2c0-0.1,0-0.2,0.1-0.2
	c0.1-0.1,0.1-0.1,0.2-0.1c0.3,0,0.8,0,1.4-0.1c0.6-0.1,1.2-0.2,1.8-0.4c0.2-0.1,0.4,0,0.5,0.1c0.1,0.2,0.2,0.3,0.2,0.5v1
	c0,0,0,0.1,0,0.1c0,0,0,0,0.1,0c0.1-0.2,0.3-0.4,0.5-0.6c0.2-0.2,0.5-0.4,0.7-0.6c0.3-0.2,0.6-0.4,1-0.5c0.4-0.1,0.8-0.2,1.2-0.2
	c1.2,0,2.2,0.3,2.9,1c0.7,0.7,1.1,1.8,1.1,3.3V93c0,0.4,0,0.8,0,1.1c0,0.3,0.1,0.5,0.2,0.7c0.1,0.2,0.2,0.3,0.4,0.4
	c0.2,0.1,0.5,0.2,0.8,0.2c0.1,0,0.2,0.1,0.2,0.1c0,0.1,0.1,0.2,0.1,0.3c0,0.1,0,0.2-0.1,0.2c0,0.1-0.1,0.1-0.2,0.1
	c-0.2,0-0.6,0-1.1-0.1c-0.5-0.1-1-0.1-1.5-0.1c-0.5,0-1,0-1.5,0.1c-0.5,0.1-0.9,0.1-1.2,0.1c-0.1,0-0.1,0-0.2-0.1
	c0-0.1-0.1-0.2-0.1-0.2c0-0.1,0-0.2,0.1-0.3c0-0.1,0.1-0.1,0.2-0.1c0.4,0,0.6-0.1,0.8-0.2c0.2-0.1,0.3-0.2,0.4-0.4
	c0.1-0.2,0.1-0.4,0.2-0.6c0-0.3,0-0.6,0-1v-3.8c0-0.4,0-0.8,0-1.2c0-0.4-0.1-0.8-0.3-1.1c-0.1-0.3-0.4-0.6-0.6-0.8
	c-0.3-0.2-0.7-0.3-1.2-0.3c-0.5,0-0.9,0.1-1.3,0.2c-0.4,0.2-0.7,0.4-0.9,0.6c-0.3,0.3-0.5,0.6-0.6,0.9c-0.1,0.4-0.2,0.7-0.2,1.1V93z
	"/>
<path d="M71.9,93.3c0,0.6,0.1,1,0.2,1.2c0.1,0.2,0.3,0.3,0.6,0.3c0.2,0,0.3,0,0.4-0.1c0.1,0,0.3-0.1,0.5-0.3c0.1,0,0.1,0,0.2,0
	c0.1,0,0.1,0.1,0.1,0.1c0,0.1,0.1,0.1,0.1,0.2c0,0.1,0,0.1,0,0.2c-0.6,0.8-1.4,1.2-2.3,1.2c-0.5,0-0.9-0.1-1.2-0.4
	c-0.3-0.3-0.6-0.6-0.8-0.9c0-0.1-0.1-0.1-0.1,0c-0.4,0.4-0.9,0.7-1.5,0.9c-0.6,0.2-1.3,0.4-2.1,0.4c-0.9,0-1.7-0.3-2.2-0.8
	C63.2,95,63,94.3,63,93.4c0-1.2,0.6-2.1,1.7-2.7c1.1-0.6,2.7-1,4.8-1c0,0,0.1,0,0.1-0.1c0-0.1,0-0.3,0-0.6v-0.7c0-0.4,0-0.8-0.1-1.2
	c-0.1-0.4-0.2-0.7-0.3-1c-0.2-0.3-0.4-0.5-0.7-0.6c-0.3-0.2-0.6-0.2-1-0.2c-0.6,0-1.1,0.1-1.5,0.4c-0.4,0.2-0.6,0.5-0.6,0.9
	c0,0.2,0.1,0.4,0.2,0.5c0.1,0.2,0.2,0.4,0.2,0.5c0,0.2-0.1,0.5-0.3,0.7c-0.2,0.2-0.5,0.3-0.8,0.3c-0.4,0-0.8-0.1-1-0.4
	c-0.2-0.2-0.3-0.5-0.3-0.9c0-0.4,0.1-0.8,0.3-1.2c0.2-0.4,0.5-0.7,0.9-1c0.4-0.3,0.9-0.5,1.4-0.6c0.5-0.2,1.1-0.2,1.7-0.2
	c1.3,0,2.4,0.3,3.1,0.9c0.8,0.6,1.1,1.6,1.1,3V93.3z M69.6,90.9c0-0.2,0-0.3,0-0.3c0,0-0.1-0.1-0.1-0.1c-1.4,0.1-2.4,0.4-3,0.9
	c-0.7,0.5-1,1-1,1.7c0,0.5,0.1,0.9,0.4,1.2c0.2,0.3,0.7,0.5,1.2,0.5c0.4,0,0.8-0.1,1.2-0.2c0.4-0.1,0.8-0.4,1.1-0.6
	c0.1-0.1,0.2-0.3,0.2-0.4V90.9z"/>
<path d="M84.7,93c-0.1,0.4-0.1,0.8-0.2,1.3c-0.1,0.5-0.1,1-0.1,1.5c0,0.2-0.1,0.3-0.2,0.3h-8.7c-0.1,0-0.2-0.1-0.2-0.2
	c0-0.1,0-0.2,0.1-0.4c0.4-0.8,0.9-1.6,1.5-2.4c0.5-0.8,1.1-1.6,1.6-2.4c0.5-0.8,1.1-1.6,1.6-2.3c0.5-0.8,1-1.5,1.4-2.2
	c0.1-0.1,0.1-0.2,0.1-0.2c0-0.1-0.1-0.1-0.3-0.1c-0.2,0-0.4-0.1-0.7-0.1s-0.7,0-1.2,0c-0.6,0-1.1,0-1.5,0.1
	c-0.4,0.1-0.7,0.2-0.9,0.4c-0.2,0.2-0.4,0.4-0.6,0.7c-0.1,0.3-0.3,0.6-0.4,1c0,0.1-0.1,0.1-0.2,0.2c-0.1,0-0.2,0-0.3,0
	c-0.1,0-0.2,0-0.2-0.1c-0.1,0-0.1-0.1-0.1-0.1c0.1-0.4,0.1-0.9,0.2-1.4c0-0.5,0.1-0.9,0.1-1.3c0,0,0-0.1,0-0.1c0,0,0.1-0.1,0.2-0.1
	H84c0.2,0,0.3,0.1,0.3,0.2c0,0.1,0,0.2-0.1,0.3c-0.9,1.6-1.9,3.2-3,4.7c-1,1.5-2,3-2.8,4.5c-0.1,0.1-0.1,0.2-0.1,0.3
	c0,0.1,0,0.2,0.1,0.2c0.1,0.1,0.3,0.1,0.6,0.1c0.3,0,0.7,0,1.3,0c0.6,0,1.1,0,1.5-0.1c0.4,0,0.7-0.2,1-0.3c0.2-0.2,0.4-0.4,0.6-0.7
	c0.2-0.3,0.3-0.7,0.5-1.3c0-0.1,0.1-0.1,0.2-0.1c0.1,0,0.2,0,0.3,0c0.1,0,0.2,0,0.3,0.1C84.7,92.8,84.7,92.9,84.7,93"/>
<path d="M95,93.3c0,0.6,0.1,1,0.2,1.2c0.1,0.2,0.3,0.3,0.6,0.3c0.2,0,0.3,0,0.4-0.1c0.1,0,0.3-0.1,0.5-0.3c0.1,0,0.1,0,0.2,0
	c0.1,0,0.1,0.1,0.1,0.1c0,0.1,0.1,0.1,0.1,0.2c0,0.1,0,0.1,0,0.2c-0.6,0.8-1.4,1.2-2.3,1.2c-0.5,0-0.9-0.1-1.2-0.4
	c-0.3-0.3-0.6-0.6-0.8-0.9c0-0.1-0.1-0.1-0.1,0c-0.4,0.4-0.9,0.7-1.5,0.9c-0.6,0.2-1.3,0.4-2.1,0.4c-0.9,0-1.7-0.3-2.2-0.8
	c-0.5-0.5-0.8-1.2-0.8-2.1c0-1.2,0.6-2.1,1.7-2.7c1.1-0.6,2.7-1,4.8-1c0,0,0.1,0,0.1-0.1c0-0.1,0-0.3,0-0.6v-0.7
	c0-0.4,0-0.8-0.1-1.2c-0.1-0.4-0.2-0.7-0.3-1c-0.2-0.3-0.4-0.5-0.7-0.6c-0.3-0.2-0.6-0.2-1-0.2c-0.6,0-1.1,0.1-1.5,0.4
	c-0.4,0.2-0.6,0.5-0.6,0.9c0,0.2,0.1,0.4,0.2,0.5c0.1,0.2,0.2,0.4,0.2,0.5c0,0.2-0.1,0.5-0.3,0.7c-0.2,0.2-0.5,0.3-0.8,0.3
	c-0.4,0-0.8-0.1-1-0.4c-0.2-0.2-0.3-0.5-0.3-0.9c0-0.4,0.1-0.8,0.3-1.2c0.2-0.4,0.5-0.7,0.9-1c0.4-0.3,0.9-0.5,1.4-0.6
	c0.5-0.2,1.1-0.2,1.7-0.2c1.3,0,2.4,0.3,3.1,0.9c0.8,0.6,1.1,1.6,1.1,3V93.3z M92.7,90.9c0-0.2,0-0.3,0-0.3c0,0-0.1-0.1-0.1-0.1
	c-1.4,0.1-2.4,0.4-3,0.9c-0.7,0.5-1,1-1,1.7c0,0.5,0.1,0.9,0.4,1.2c0.2,0.3,0.7,0.5,1.2,0.5c0.4,0,0.8-0.1,1.2-0.2
	c0.4-0.1,0.8-0.4,1.1-0.6c0.1-0.1,0.2-0.3,0.2-0.4V90.9z"/>
<path d="M106.6,85c0.5,1.2,1,2.5,1.6,3.7c0.5,1.2,1,2.5,1.6,3.7c0,0.1,0.1,0.2,0.2,0.1c0.1,0,0.1-0.1,0.2-0.1
	c0.3-0.9,0.5-1.8,0.7-2.6c0.2-0.8,0.4-1.7,0.6-2.5c0.1-0.3,0.1-0.5,0.1-0.7c0-0.4-0.1-0.6-0.3-0.7c-0.2-0.1-0.5-0.2-0.9-0.3
	c-0.1,0-0.2-0.1-0.2-0.1c0-0.1-0.1-0.2-0.1-0.2c0-0.1,0-0.2,0.1-0.3c0.1-0.1,0.1-0.1,0.2-0.1c0.4,0,0.8,0,1.1,0.1
	c0.3,0.1,0.7,0.1,1,0.1c0.3,0,0.7,0,1.1-0.1c0.4-0.1,0.7-0.1,0.9-0.1c0.1,0,0.2,0,0.2,0.1c0,0.1,0.1,0.2,0.1,0.3
	c0,0.1,0,0.2-0.1,0.3c0,0.1-0.1,0.1-0.2,0.1c-0.3,0-0.6,0.1-0.8,0.2c-0.2,0.1-0.4,0.3-0.6,0.5c-0.2,0.2-0.3,0.5-0.4,0.7
	c-0.1,0.3-0.2,0.6-0.3,0.9c-0.8,2.8-1.7,5.6-2.6,8.4c0,0.1-0.1,0.2-0.3,0.2c-0.2,0-0.3,0-0.3-0.1c-0.5-1.3-1-2.6-1.5-3.9
	c-0.5-1.3-1-2.6-1.7-4c0-0.1-0.1-0.1-0.1-0.1s-0.1,0-0.1,0.1c-0.3,0.8-0.6,1.5-0.8,2.2c-0.3,0.7-0.5,1.3-0.8,2
	c-0.2,0.6-0.5,1.2-0.7,1.9c-0.2,0.6-0.5,1.2-0.7,1.9c0,0.1-0.1,0.2-0.3,0.2c-0.2,0-0.3,0-0.3-0.2c-0.5-1.5-1-2.9-1.5-4.3
	c-0.5-1.4-1-2.9-1.4-4.3c-0.1-0.4-0.3-0.8-0.4-1c-0.1-0.3-0.3-0.5-0.4-0.6c-0.1-0.2-0.3-0.3-0.5-0.4c-0.2-0.1-0.4-0.1-0.7-0.2
	c-0.1,0-0.1-0.1-0.2-0.1c0-0.1,0-0.2,0-0.2c0-0.1,0-0.2,0-0.3c0-0.1,0.1-0.1,0.2-0.1c0.4,0,0.8,0,1.3,0.1c0.4,0.1,0.9,0.1,1.4,0.1
	c0.5,0,0.9,0,1.4-0.1c0.5-0.1,0.9-0.1,1.4-0.1c0.1,0,0.1,0,0.2,0.1c0,0.1,0.1,0.2,0.1,0.2s0,0.2-0.1,0.3c0,0.1-0.1,0.1-0.2,0.1
	c-0.5,0.1-0.8,0.2-1,0.3c-0.2,0.1-0.3,0.4-0.3,0.6c0,0.1,0,0.3,0,0.4c0,0.2,0.1,0.3,0.1,0.5c0.2,0.8,0.5,1.7,0.7,2.5
	c0.3,0.8,0.5,1.6,0.8,2.4c0,0.1,0.1,0.1,0.2,0.1c0.1,0,0.2,0,0.2-0.1c1-2.6,1.9-5.1,2.9-7.4c0-0.1,0.1-0.2,0.3-0.2
	C106.4,84.9,106.5,84.9,106.6,85"/>
<path d="M124.1,93.3c0,0.6,0.1,1,0.2,1.2c0.1,0.2,0.3,0.3,0.6,0.3c0.2,0,0.3,0,0.4-0.1c0.1,0,0.3-0.1,0.5-0.3c0.1,0,0.1,0,0.2,0
	c0.1,0,0.1,0.1,0.1,0.1c0,0.1,0.1,0.1,0.1,0.2c0,0.1,0,0.1,0,0.2c-0.6,0.8-1.4,1.2-2.3,1.2c-0.5,0-0.9-0.1-1.2-0.4
	c-0.3-0.3-0.6-0.6-0.8-0.9c0-0.1-0.1-0.1-0.1,0c-0.4,0.4-0.9,0.7-1.5,0.9c-0.6,0.2-1.3,0.4-2.1,0.4c-0.9,0-1.7-0.3-2.2-0.8
	c-0.5-0.5-0.8-1.2-0.8-2.1c0-1.2,0.6-2.1,1.7-2.7c1.1-0.6,2.7-1,4.8-1c0,0,0.1,0,0.1-0.1c0-0.1,0-0.3,0-0.6v-0.7
	c0-0.4,0-0.8-0.1-1.2c-0.1-0.4-0.2-0.7-0.3-1c-0.2-0.3-0.4-0.5-0.7-0.6c-0.3-0.2-0.6-0.2-1-0.2c-0.6,0-1.1,0.1-1.5,0.4
	c-0.4,0.2-0.6,0.5-0.6,0.9c0,0.2,0.1,0.4,0.2,0.5c0.1,0.2,0.2,0.4,0.2,0.5c0,0.2-0.1,0.5-0.3,0.7c-0.2,0.2-0.5,0.3-0.8,0.3
	c-0.4,0-0.8-0.1-1-0.4c-0.2-0.2-0.3-0.5-0.3-0.9c0-0.4,0.1-0.8,0.3-1.2c0.2-0.4,0.5-0.7,0.9-1c0.4-0.3,0.9-0.5,1.4-0.6
	c0.5-0.2,1.1-0.2,1.7-0.2c1.3,0,2.4,0.3,3.1,0.9c0.8,0.6,1.1,1.6,1.1,3V93.3z M121.8,90.9c0-0.2,0-0.3,0-0.3c0,0-0.1-0.1-0.1-0.1
	c-1.4,0.1-2.4,0.4-3,0.9c-0.7,0.5-1,1-1,1.7c0,0.5,0.1,0.9,0.4,1.2c0.2,0.3,0.7,0.5,1.2,0.5c0.4,0,0.8-0.1,1.2-0.2
	c0.4-0.1,0.8-0.4,1.1-0.6c0.1-0.1,0.2-0.3,0.2-0.4V90.9z"/>
<path d="M133.8,96c-0.1,0-0.2,0-0.3-0.1c-0.1-0.1-0.1-0.1-0.1-0.2c0-0.1,0-0.2,0-0.3c0-0.1,0.1-0.2,0.1-0.2c1.2-0.9,2.1-1.7,2.9-2.4
	c0.8-0.7,1.4-1.3,1.9-1.8c0.5-0.5,0.8-1,1-1.5c0.2-0.5,0.3-1,0.3-1.5c0-0.3,0-0.7-0.1-1c-0.1-0.3-0.1-0.6-0.3-0.9
	c-0.1-0.2-0.4-0.5-0.6-0.6c-0.3-0.2-0.6-0.2-1-0.2c-0.4,0-0.7,0.1-1,0.2c-0.3,0.1-0.5,0.2-0.7,0.4s-0.3,0.3-0.4,0.5
	c-0.1,0.2-0.1,0.3-0.1,0.4c0,0,0,0.1,0,0.2c0,0.1,0,0.2,0.1,0.2c0,0.1,0.1,0.1,0.2,0.2c0.1,0.1,0.2,0.1,0.4,0.1
	c0.3,0,0.5,0.1,0.6,0.2c0.1,0.2,0.1,0.3,0.1,0.5s-0.1,0.4-0.3,0.5c-0.2,0.2-0.5,0.2-0.8,0.2c-0.3,0-0.6-0.1-0.8-0.2
	c-0.2-0.1-0.4-0.3-0.5-0.4c-0.1-0.2-0.2-0.4-0.2-0.6c0-0.2-0.1-0.4-0.1-0.6c0-0.4,0.1-0.7,0.3-1.1c0.2-0.3,0.4-0.6,0.8-0.9
	c0.3-0.3,0.7-0.5,1.2-0.6c0.5-0.1,1.1-0.2,1.7-0.2c0.6,0,1.2,0.1,1.7,0.3c0.5,0.2,0.9,0.4,1.3,0.7c0.3,0.3,0.6,0.6,0.8,1.1
	c0.2,0.4,0.3,0.8,0.3,1.3c0,0.6-0.2,1.3-0.5,1.9c-0.4,0.6-0.8,1.2-1.4,1.7c-0.6,0.5-1.2,1-1.8,1.4c-0.7,0.4-1.3,0.8-1.9,1.2
	c-0.1,0-0.1,0.1-0.1,0.2c0,0.1,0,0.1,0.1,0.1h3.6c0.2,0,0.4,0,0.6-0.1c0.2,0,0.3-0.1,0.4-0.2c0.1-0.1,0.2-0.3,0.4-0.5
	c0.1-0.2,0.3-0.5,0.4-0.8c0-0.1,0.1-0.1,0.2-0.2c0.1,0,0.2-0.1,0.2,0c0.1,0,0.2,0,0.2,0.1c0.1,0,0.1,0.1,0.1,0.2
	c-0.1,0.6-0.3,1.1-0.4,1.6c-0.1,0.5-0.2,1.1-0.2,1.7H133.8z"/>
<path d="M156.2,90.1c0,1-0.2,1.9-0.5,2.7c-0.3,0.8-0.7,1.4-1.3,2c-0.5,0.5-1.2,0.9-1.9,1.2c-0.8,0.3-1.6,0.4-2.5,0.4
	c-0.8,0-1.5-0.1-2.2-0.4c-0.7-0.3-1.3-0.6-1.8-1.1c-0.5-0.5-0.9-1.1-1.2-1.9c-0.3-0.8-0.4-1.7-0.4-2.7c0-0.8,0.1-1.6,0.4-2.3
	c0.3-0.7,0.7-1.3,1.2-1.8c0.5-0.5,1.2-0.9,1.9-1.2c0.7-0.3,1.5-0.4,2.4-0.4c0.8,0,1.6,0.1,2.3,0.4c0.7,0.3,1.3,0.6,1.8,1.1
	c0.5,0.5,0.9,1.1,1.2,1.8C156,88.4,156.2,89.2,156.2,90.1 M153.7,90.4c0-0.6-0.1-1.2-0.2-1.8c-0.1-0.6-0.3-1.1-0.6-1.6
	c-0.3-0.5-0.6-0.9-1-1.1c-0.4-0.3-0.9-0.4-1.5-0.4c-0.6,0-1.2,0.1-1.6,0.4c-0.4,0.3-0.8,0.7-1.1,1.2c-0.3,0.5-0.5,1-0.6,1.6
	c-0.1,0.6-0.2,1.2-0.2,1.9c0,0.6,0.1,1.1,0.2,1.7c0.1,0.6,0.3,1.1,0.6,1.6c0.3,0.5,0.6,0.9,1,1.2c0.4,0.3,1,0.5,1.6,0.5
	c0.6,0,1.2-0.1,1.6-0.4c0.4-0.3,0.8-0.7,1-1.2c0.3-0.5,0.4-1,0.6-1.6C153.6,91.6,153.7,91,153.7,90.4"/>
<path d="M162.3,92.8c0,0.5,0,1,0.1,1.3c0,0.3,0.1,0.6,0.3,0.7c0.1,0.2,0.3,0.3,0.6,0.4c0.3,0.1,0.6,0.1,1.1,0.2
	c0.1,0,0.1,0.1,0.2,0.1c0,0.1,0.1,0.1,0.1,0.2c0,0.1,0,0.2-0.1,0.2c0,0.1-0.1,0.1-0.2,0.1c-0.1,0-0.3,0-0.5,0c-0.2,0-0.4,0-0.6,0
	c-0.3,0-0.6-0.1-0.9-0.1c-0.3,0-0.6,0-1,0c-0.7,0-1.4,0-2.1,0.1c-0.3,0-0.5,0-0.8,0c-0.2,0-0.5,0-0.7,0c-0.1,0-0.1,0-0.1-0.1
	c0-0.1-0.1-0.1-0.1-0.2c0-0.1,0-0.2,0-0.2c0-0.1,0.1-0.1,0.2-0.1c0.5,0,0.9-0.1,1.2-0.2c0.3-0.1,0.5-0.2,0.6-0.4
	c0.1-0.2,0.2-0.4,0.3-0.7c0-0.3,0-0.7,0-1.3v-4.6c0-0.9,0-1.5-0.1-1.8c-0.1-0.3-0.4-0.5-0.8-0.5c-0.1,0-0.3,0-0.6,0
	c-0.2,0-0.5,0.1-0.8,0.1c-0.1,0-0.2-0.1-0.3-0.3c0-0.2,0-0.3,0.1-0.4c0.4-0.1,0.8-0.2,1.2-0.3c0.4-0.1,0.7-0.1,1-0.2
	c0.3-0.1,0.6-0.1,0.9-0.2c0.3-0.1,0.7-0.2,1.2-0.3c0.3-0.1,0.5,0,0.5,0.3V92.8z"/>
<path d="M169.2,86.8c-0.5,0-0.9,0-1.2,0c-0.3,0-0.6,0.1-0.8,0.2c-0.2,0.1-0.4,0.3-0.5,0.5c-0.1,0.2-0.3,0.6-0.5,1
	c0,0.1-0.1,0.2-0.2,0.2c-0.1,0-0.2,0-0.3,0c-0.1,0-0.2-0.1-0.2-0.1c-0.1-0.1-0.1-0.1,0-0.2c0.1-0.4,0.2-0.7,0.3-1
	c0.1-0.3,0.2-0.7,0.3-1c0.1-0.3,0.1-0.7,0.2-1c0.1-0.3,0.1-0.7,0.2-1.1c0-0.1,0.1-0.2,0.1-0.2c0.1,0,0.2-0.1,0.3-0.1
	c0.1,0,0.2,0,0.3,0.1c0.1,0.1,0.1,0.1,0.1,0.2c0,0.3,0.2,0.4,0.4,0.5c0.2,0,0.6,0.1,1.1,0.1h7.6c0.1,0,0.2,0,0.2,0.1
	c0,0.1,0,0.2,0,0.2c-1,1.8-2.1,3.5-3,5.4c-1,1.8-1.9,3.6-2.7,5.4c-0.2,0.4-0.3,0.7-0.3,1c0,0.3-0.1,0.6-0.1,0.9c0,0.3,0,0.6,0.1,0.9
	c0,0.3,0.1,0.6,0.1,0.9c0,0.3-0.1,0.5-0.2,0.7c-0.2,0.2-0.4,0.3-0.8,0.3c-0.5,0-0.8-0.1-0.9-0.3c-0.1-0.2-0.2-0.5-0.2-0.8
	c0-0.3,0.1-0.7,0.3-1.3c0.2-0.6,0.5-1.3,0.8-2.1c0.3-0.6,0.6-1.3,0.9-2c0.3-0.7,0.7-1.5,1.1-2.3c0.4-0.8,0.8-1.6,1.3-2.5
	c0.5-0.9,0.9-1.7,1.5-2.6c0.1-0.2,0-0.2-0.2-0.2H169.2z"/>
<path d="M5,7.9C5,7,5,6.1,4.9,5.4C4.8,4.8,4.5,4.2,4.2,3.8C3.9,3.3,3.5,3,2.9,2.8C2.3,2.5,1.6,2.4,0.6,2.3c-0.2,0-0.3-0.1-0.4-0.3
	C0.1,1.9,0,1.7,0,1.5c0-0.2,0-0.4,0.1-0.5c0.1-0.2,0.2-0.2,0.4-0.2c1,0,2.1,0.1,3.4,0.2c1.3,0.1,2.5,0.2,3.6,0.2c0.7,0,1.2,0,1.8,0
	c0.5,0,1-0.1,1.5-0.1c0.5,0,1-0.1,1.5-0.1c0.5,0,1.1,0,1.7,0c0.2,0,0.3,0.1,0.4,0.2c0.1,0.2,0.1,0.3,0.1,0.5c0,0.2,0,0.4-0.1,0.5
	c-0.1,0.2-0.2,0.3-0.4,0.3c-1,0.1-1.7,0.2-2.3,0.4s-1,0.5-1.2,0.9c-0.3,0.4-0.4,1-0.5,1.7s-0.1,1.6-0.1,2.6v8.3
	c0,0.3,0.1,0.6,0.4,0.6c0.2,0.1,0.6-0.1,1-0.5c2.1-2.1,3.9-4.1,5.4-5.9c1.5-1.9,2.7-3.5,3.5-4.9C20.7,4.9,20.9,4.4,21,4
	c0-0.4,0-0.7-0.2-0.9c-0.2-0.2-0.5-0.4-0.9-0.5c-0.4-0.1-0.9-0.2-1.5-0.2c-0.2,0-0.4-0.1-0.5-0.3c-0.1-0.2-0.2-0.3-0.2-0.5
	c0-0.2,0-0.4,0.1-0.5c0.1-0.2,0.2-0.2,0.4-0.2c1.1,0,2.1,0.1,2.9,0.2c0.9,0.1,1.7,0.2,2.7,0.2c0.8,0,1.6-0.1,2.2-0.2
	c0.7-0.1,1.5-0.2,2.4-0.2c0.2,0,0.3,0.1,0.3,0.2c0.1,0.2,0.1,0.3,0.1,0.5c0,0.2,0,0.4-0.1,0.5c-0.1,0.2-0.2,0.2-0.3,0.3
	c-0.6,0.1-1.1,0.1-1.6,0.3c-0.4,0.1-0.8,0.3-1.1,0.4c-0.3,0.2-0.6,0.4-0.9,0.8c-0.3,0.3-0.6,0.7-1,1.2c-0.6,0.7-1.1,1.5-1.7,2.3
	c-0.6,0.8-1.2,1.6-1.9,2.4c-0.6,0.8-1.3,1.6-1.9,2.3c-0.6,0.8-1.2,1.4-1.8,2c-0.2,0.2-0.3,0.5-0.2,0.7c0.1,0.2,0.3,0.4,0.6,0.7
	c0.7,0.7,1.5,1.5,2.3,2.4c0.8,0.9,1.6,1.9,2.4,2.9c0.8,1.1,1.6,2.1,2.4,3.3c0.8,1.1,1.5,2.3,2.2,3.4c0.7,1.1,1.4,1.9,2.1,2.5
	c0.8,0.6,1.8,0.9,3.1,1c0.2,0,0.3,0.1,0.4,0.3c0.1,0.2,0.1,0.3,0.1,0.5c0,0.2,0,0.4-0.1,0.5c-0.1,0.2-0.2,0.2-0.4,0.2
	c-0.7,0-1.3,0-1.9,0c-0.6,0-1.1-0.1-1.6-0.1c-0.5,0-1-0.1-1.6-0.1c-0.5,0-1.1-0.1-1.7-0.1c-0.6,0-1.1,0-1.6,0.1s-1,0.1-1.5,0.1
	c-0.5,0-1,0.1-1.5,0.1c-0.5,0-1.1,0-1.7,0c-0.2,0-0.3-0.1-0.4-0.2c-0.1-0.2-0.2-0.3-0.2-0.5c0-0.2,0-0.4,0.1-0.5
	c0.1-0.2,0.3-0.3,0.5-0.3c0.3,0,0.7-0.1,1-0.2s0.6-0.2,0.9-0.4c0.2-0.2,0.3-0.5,0.4-0.9c0-0.4-0.1-0.8-0.4-1.4c-0.5-1-1-1.9-1.4-2.7
	c-0.4-0.8-0.9-1.5-1.4-2.2c-0.5-0.7-1-1.3-1.6-2c-0.6-0.6-1.2-1.3-2-2c-0.4-0.3-0.8-0.6-1.1-0.7c-0.4-0.1-0.7-0.1-1-0.1
	c-0.7,0-1.2,0.2-1.4,0.6c-0.2,0.4-0.3,0.8-0.3,1.2v5.9c0,1,0,1.8,0.1,2.4c0.1,0.6,0.2,1,0.5,1.4c0.2,0.3,0.6,0.6,1.1,0.7
	c0.5,0.1,1.2,0.2,2,0.3c0.2,0,0.3,0.1,0.4,0.3c0.1,0.2,0.2,0.3,0.2,0.5c0,0.2-0.1,0.4-0.2,0.5c-0.1,0.2-0.3,0.2-0.5,0.2
	c-0.6,0-1.2,0-1.7,0c-0.5,0-1-0.1-1.5-0.1c-0.5,0-1-0.1-1.4-0.1c-0.5,0-1-0.1-1.6-0.1c-1.2,0-2.4,0.1-3.7,0.2
	c-1.3,0.1-2.4,0.2-3.4,0.2c-0.2,0-0.3-0.1-0.4-0.2C0,32.1,0,31.9,0,31.7c0-0.2,0-0.4,0.1-0.5c0.1-0.2,0.2-0.2,0.4-0.3
	c1-0.1,1.7-0.2,2.3-0.3c0.6-0.1,1-0.4,1.3-0.7c0.3-0.3,0.5-0.8,0.7-1.3C5,28,5,27.2,5,26.2V7.9z"/>
<path d="M60.2,32.7c-4.9,0-8.7-1.4-11.4-4.1c-2.8-2.8-4.1-6.9-4.1-12.4c0-2.4,0.4-4.5,1.2-6.5c0.8-2,1.9-3.7,3.2-5.1
	c1.4-1.4,3-2.5,5-3.3C55.9,0.4,58,0,60.4,0c2.3,0,4.3,0.4,6.2,1.1c1.9,0.8,3.5,1.8,4.9,3.2c1.4,1.4,2.4,3.1,3.2,5
	c0.8,2,1.1,4.2,1.1,6.6c0,2.7-0.4,5.1-1.2,7.1c-0.8,2.1-1.9,3.8-3.4,5.2c-1.4,1.4-3.1,2.5-5,3.2C64.4,32.3,62.4,32.7,60.2,32.7
	 M60.4,30.7c1.5,0,2.9-0.4,4-1.2c1.2-0.8,2.1-1.9,3-3.2c0.8-1.3,1.4-2.8,1.8-4.6c0.4-1.7,0.6-3.5,0.6-5.4c0-1.8-0.2-3.6-0.5-5.3
	c-0.3-1.7-0.9-3.3-1.6-4.6C67,5.1,66,4,64.8,3.2C63.5,2.4,62,2,60.2,2c-1.7,0-3.1,0.4-4.4,1.3c-1.2,0.8-2.2,1.9-3,3.3
	c-0.8,1.4-1.3,2.9-1.7,4.6c-0.4,1.7-0.6,3.5-0.6,5.2c0,1.9,0.2,3.7,0.5,5.4c0.3,1.7,0.8,3.3,1.6,4.6c0.7,1.3,1.7,2.4,3,3.2
	C56.9,30.3,58.5,30.7,60.4,30.7"/>
<path d="M120.8,28.5c0,0.2-0.1,0.4-0.2,0.5c-0.8,0.6-1.6,1.1-2.3,1.6c-0.7,0.5-1.6,0.9-2.5,1.2c-0.9,0.3-2,0.6-3.3,0.7
	c-1.3,0.2-2.8,0.3-4.5,0.3c-2.5,0-4.8-0.4-6.8-1.1c-2-0.7-3.6-1.8-5-3.2c-1.3-1.4-2.4-3.1-3-5.1c-0.7-2-1-4.3-1-6.9
	c0-2.6,0.4-5,1.2-7.1c0.8-2.1,2-3.8,3.4-5.2c1.5-1.4,3.2-2.5,5.2-3.2c2-0.7,4.2-1.1,6.5-1.1c1.5,0,2.9,0.2,4.3,0.6
	c1.3,0.4,2.6,0.9,3.7,1.4c0.7,0.3,1.2,0.5,1.6,0.6c0.4,0.1,0.8-0.2,1-0.8c0-0.2,0.1-0.3,0.3-0.3c0.2-0.1,0.3-0.1,0.5-0.1
	c0.2,0,0.3,0.1,0.4,0.1c0.1,0.1,0.2,0.2,0.1,0.3c-0.3,1.2-0.4,2.5-0.3,4c0.1,1.5,0.2,2.9,0.3,4.5c0,0.2-0.1,0.3-0.2,0.4
	c-0.2,0.1-0.3,0.2-0.5,0.2c-0.2,0-0.4,0-0.6-0.1c-0.2-0.1-0.3-0.2-0.3-0.4c-0.4-2.7-1.6-4.8-3.5-6.2c-1.9-1.4-4.3-2.2-7.2-2.2
	c-1.8,0-3.3,0.4-4.6,1.2c-1.3,0.8-2.3,1.9-3.2,3.2c-0.8,1.3-1.4,2.8-1.8,4.4c-0.4,1.6-0.6,3.3-0.6,4.9c0,2.3,0.2,4.3,0.7,6.2
	c0.5,1.8,1.1,3.4,2,4.7c0.9,1.3,2,2.3,3.2,3c1.3,0.7,2.7,1.1,4.4,1.1c1.2,0,2.3-0.1,3.3-0.3c1-0.2,1.8-0.5,2.5-0.9
	c0.7-0.4,1.2-1,1.6-1.8c0.4-0.8,0.6-1.7,0.6-2.9c0-0.9-0.1-1.7-0.2-2.2c-0.1-0.5-0.4-0.9-0.7-1.2c-0.3-0.3-0.8-0.5-1.4-0.6
	c-0.6-0.1-1.4-0.2-2.3-0.3c-0.2,0-0.4-0.1-0.5-0.2c-0.1-0.2-0.1-0.3-0.1-0.5c0-0.2,0-0.3,0.1-0.5c0.1-0.1,0.2-0.2,0.4-0.2
	c1.1,0,2.2,0,3.4,0.1c1.2,0.1,2.2,0.1,3.1,0.1c0.4,0,0.8,0,1.2,0s0.8-0.1,1.2-0.1c0.4,0,0.9,0,1.4-0.1c0.5,0,1,0,1.7,0
	c0.2,0,0.3,0.1,0.3,0.2c0.1,0.1,0.1,0.3,0.1,0.5c0,0.2,0,0.3-0.1,0.4c-0.1,0.1-0.2,0.2-0.4,0.3c-0.7,0.1-1.2,0.2-1.6,0.3
	c-0.4,0.2-0.6,0.4-0.8,0.7c-0.2,0.3-0.3,0.6-0.3,1c0,0.4,0,0.9,0,1.5V28.5z"/>
<path d="M160.8,0.9c0.2,0,0.5,0,0.7,0.1c0.2,0.1,0.3,0.3,0.3,0.7c-0.1,0.3-0.1,0.7-0.1,1.2v1.3c0,1.4,0,2.7,0.1,3.9
	c0,0.1-0.1,0.2-0.2,0.3c-0.1,0.1-0.3,0.1-0.5,0.1c-0.2,0-0.4,0-0.5-0.1c-0.2-0.1-0.3-0.2-0.3-0.4c-0.2-1.2-0.4-2.2-0.7-2.8
	c-0.2-0.7-0.5-1.2-0.9-1.6c-0.4-0.4-0.9-0.6-1.6-0.7c-0.7-0.1-1.5-0.2-2.6-0.2h-2.8c-0.8,0-1.5,0-1.9,0c-0.5,0-0.9,0.1-1.1,0.3
	c-0.3,0.2-0.5,0.5-0.6,1s-0.1,1-0.1,1.8v8.1c0,0.4,0.1,0.7,0.2,0.8c0.2,0.1,0.3,0.2,0.5,0.2c1.4,0,2.6-0.1,3.4-0.2
	c0.8-0.1,1.4-0.4,1.9-0.7c0.4-0.3,0.7-0.8,0.8-1.3c0.1-0.5,0.3-1.2,0.3-2c0-0.2,0.1-0.3,0.3-0.4c0.2-0.1,0.3-0.1,0.5-0.1
	s0.4,0,0.5,0.1c0.2,0.1,0.2,0.2,0.2,0.4c0,0.5,0,0.9,0,1.3c0,0.4-0.1,0.8-0.1,1.2c0,0.4-0.1,0.8-0.1,1.2c0,0.4,0,0.9,0,1.5
	c0,0.9,0,1.8,0.1,2.5c0.1,0.8,0.1,1.7,0.1,2.8c0,0.2-0.1,0.3-0.2,0.3c-0.2,0.1-0.3,0.1-0.5,0.1c-0.2,0-0.4-0.1-0.5-0.1
	c-0.2-0.1-0.2-0.2-0.3-0.4c-0.1-0.9-0.2-1.6-0.3-2.2c-0.1-0.6-0.4-1-0.8-1.3s-1-0.5-1.9-0.6c-0.8-0.1-1.9-0.2-3.4-0.2
	c-0.2,0-0.3,0.1-0.5,0.2c-0.2,0.1-0.2,0.3-0.2,0.7v6.1c0,1,0.1,1.8,0.2,2.5c0.1,0.7,0.3,1.3,0.6,1.7c0.3,0.5,0.6,0.8,1,1.1
	c0.4,0.3,0.9,0.5,1.4,0.6c0.4,0.1,0.9,0.2,1.5,0.2s1.1,0.1,1.7,0.1c0.7,0,1.4,0,2.1-0.1c0.7-0.1,1.1-0.2,1.5-0.3
	c0.6-0.2,1.2-0.4,1.6-0.7c0.4-0.2,0.8-0.6,1.1-1c0.3-0.4,0.6-0.9,0.8-1.5c0.2-0.6,0.4-1.4,0.5-2.3c0-0.2,0.1-0.3,0.3-0.4
	c0.2-0.1,0.4-0.1,0.6-0.1c0.2,0,0.4,0,0.6,0.1c0.2,0.1,0.2,0.2,0.2,0.4c-0.2,1.3-0.3,2.5-0.4,3.7c-0.1,1.1-0.2,2.3-0.1,3.5
	c0,0.1-0.1,0.2-0.2,0.4c-0.1,0.2-0.4,0.3-0.9,0.3h-16.9c-1.2,0-2.3,0-3.5,0.1c-1.1,0.1-2.1,0.1-3,0.2c-0.2,0-0.4-0.1-0.6-0.2
	c-0.1-0.1-0.2-0.3-0.2-0.5c0-0.2,0-0.4,0.1-0.6c0.1-0.2,0.3-0.3,0.6-0.3c0.7-0.1,1.4-0.2,1.9-0.4c0.5-0.2,1-0.4,1.3-0.7
	c0.3-0.3,0.6-0.7,0.8-1.2c0.2-0.5,0.3-1.1,0.3-1.9V8.7c0-0.7,0-1.3-0.1-2c0-0.7-0.1-1.3-0.3-1.8c-0.2-0.6-0.4-1-0.7-1.4
	c-0.3-0.4-0.8-0.7-1.3-0.8c-0.3-0.1-0.7-0.2-1.1-0.2c-0.4-0.1-0.7-0.1-1.1-0.1c-0.2,0-0.3-0.1-0.4-0.2c-0.1-0.2-0.1-0.3-0.1-0.5
	c0-0.2,0-0.4,0.1-0.5c0.1-0.2,0.2-0.2,0.4-0.2c1.1,0,2,0,2.8,0.1c0.8,0.1,1.8,0.1,2.9,0.1H160.8z"/>
<path d="M183.8,7.9c0-1-0.1-1.8-0.2-2.5c-0.1-0.7-0.3-1.2-0.6-1.7c-0.3-0.4-0.8-0.8-1.3-1c-0.6-0.2-1.3-0.4-2.3-0.4
	c-0.2,0-0.3-0.1-0.4-0.3c-0.1-0.2-0.1-0.3-0.1-0.5c0-0.2,0-0.4,0.1-0.5c0.1-0.2,0.2-0.2,0.4-0.2c1,0,2.1,0,3.4,0.1
	c1.3,0.1,2.5,0.1,3.6,0.1c0.7,0,1.3,0,1.8,0c0.6,0,1.1-0.1,1.7-0.1c0.5,0,1.1-0.1,1.7-0.1c0.6,0,1.2,0,1.8,0c0.2,0,0.3,0.1,0.4,0.2
	c0.1,0.2,0.1,0.3,0.1,0.5c0,0.2-0.1,0.4-0.2,0.5c-0.1,0.2-0.2,0.3-0.4,0.3c-1,0.1-1.7,0.2-2.3,0.4c-0.6,0.2-1,0.5-1.4,0.9
	c-0.3,0.4-0.5,1-0.6,1.7c-0.1,0.7-0.1,1.6-0.1,2.6v18.2c0,1,0.1,1.8,0.2,2.4s0.3,1,0.7,1.3s0.8,0.5,1.4,0.7c0.6,0.1,1.3,0.3,2.3,0.3
	c0.2,0,0.3,0.1,0.4,0.3c0.1,0.2,0.2,0.4,0.2,0.5c0,0.2-0.1,0.4-0.2,0.5c-0.1,0.2-0.3,0.2-0.5,0.2c-1.2,0-2.4-0.1-3.6-0.2
	c-1.1-0.1-2.3-0.2-3.4-0.2c-1.2,0-2.4,0.1-3.7,0.2c-1.3,0.1-2.4,0.2-3.4,0.2c-0.2,0-0.3-0.1-0.4-0.2c-0.1-0.2-0.1-0.3-0.1-0.5
	c0-0.2,0-0.4,0.1-0.5c0.1-0.2,0.2-0.3,0.4-0.3c1-0.1,1.7-0.2,2.3-0.3c0.6-0.1,1-0.4,1.3-0.7c0.3-0.3,0.5-0.8,0.7-1.3
	c0.1-0.6,0.2-1.4,0.2-2.4V7.9z"/>
</svg>
